<mxfile host="app.diagrams.net" modified="2023-07-24T09:02:26.088Z" agent="Mozilla/5.0 (Windows NT 10.0; Win64; x64) AppleWebKit/537.36 (KHTML, like Gecko) Chrome/115.0.0.0 Safari/537.36" etag="DGpUbi425OHbV-5h6DWo" version="21.3.8" type="github">
  <diagram name="Page-1" id="55a83fd1-7818-8e21-69c5-c3457e3827bb">
    <mxGraphModel dx="1036" dy="571" grid="1" gridSize="10" guides="1" tooltips="1" connect="1" arrows="1" fold="1" page="1" pageScale="1" pageWidth="1100" pageHeight="850" background="none" math="0" shadow="0">
      <root>
        <mxCell id="0" />
        <mxCell id="1" parent="0" />
        <mxCell id="69ecfefc5c41e42c-19" style="edgeStyle=none;rounded=0;html=1;labelBackgroundColor=none;endArrow=none;strokeWidth=2;fontFamily=Verdana;fontSize=22" parent="1" source="69ecfefc5c41e42c-3" edge="1">
          <mxGeometry relative="1" as="geometry">
            <mxPoint x="510" y="220" as="targetPoint" />
          </mxGeometry>
        </mxCell>
        <mxCell id="69ecfefc5c41e42c-3" value="IIS WebApi接口转发服务" style="image;html=1;labelBackgroundColor=#ffffff;image=img/lib/clip_art/networking/Firewall_128x128.png;rounded=1;shadow=0;comic=0;strokeWidth=2;fontSize=22;labelPosition=right;verticalLabelPosition=middle;align=left;verticalAlign=middle;" parent="1" vertex="1">
          <mxGeometry x="470" y="290" width="80" height="80" as="geometry" />
        </mxCell>
        <mxCell id="69ecfefc5c41e42c-11" value="" style="html=1;fillColor=#CCCCCC;strokeColor=#6881B3;gradientColor=none;gradientDirection=north;strokeWidth=2;shape=mxgraph.networks.comm_link_edge;html=1;labelBackgroundColor=none;endArrow=none;fontFamily=Verdana;fontSize=22;fontColor=#000000;entryX=0;entryY=1;entryDx=0;entryDy=0;" parent="1" target="69ecfefc5c41e42c-3" edge="1">
          <mxGeometry width="100" height="100" relative="1" as="geometry">
            <mxPoint x="230" y="464.2857142857142" as="sourcePoint" />
            <mxPoint x="470" y="501.875" as="targetPoint" />
          </mxGeometry>
        </mxCell>
        <mxCell id="69ecfefc5c41e42c-12" value="" style="html=1;fillColor=#CCCCCC;strokeColor=#6881B3;gradientColor=none;gradientDirection=north;strokeWidth=2;shape=mxgraph.networks.comm_link_edge;html=1;labelBackgroundColor=none;endArrow=none;fontFamily=Verdana;fontSize=22;fontColor=#000000;fontStyle=1" parent="1" edge="1">
          <mxGeometry width="100" height="100" relative="1" as="geometry">
            <mxPoint x="227.33333333333326" y="640" as="sourcePoint" />
            <mxPoint x="470" y="380" as="targetPoint" />
          </mxGeometry>
        </mxCell>
        <mxCell id="69ecfefc5c41e42c-13" value="" style="html=1;fillColor=#CCCCCC;strokeColor=#6881B3;gradientColor=none;gradientDirection=north;strokeWidth=2;shape=mxgraph.networks.comm_link_edge;html=1;labelBackgroundColor=none;endArrow=none;fontFamily=Verdana;fontSize=22;fontColor=#000000;" parent="1" edge="1">
          <mxGeometry width="100" height="100" relative="1" as="geometry">
            <mxPoint x="372.9729729729729" y="710" as="sourcePoint" />
            <mxPoint x="480" y="380" as="targetPoint" />
          </mxGeometry>
        </mxCell>
        <mxCell id="69ecfefc5c41e42c-14" value="" style="html=1;fillColor=#CCCCCC;strokeColor=#6881B3;gradientColor=none;gradientDirection=north;strokeWidth=2;shape=mxgraph.networks.comm_link_edge;html=1;labelBackgroundColor=none;endArrow=none;fontFamily=Verdana;fontSize=22;fontColor=#000000;" parent="1" edge="1">
          <mxGeometry width="100" height="100" relative="1" as="geometry">
            <mxPoint x="500" y="690" as="sourcePoint" />
            <mxPoint x="490" y="380" as="targetPoint" />
          </mxGeometry>
        </mxCell>
        <mxCell id="69ecfefc5c41e42c-15" value="" style="html=1;fillColor=#CCCCCC;strokeColor=#6881B3;gradientColor=none;gradientDirection=north;strokeWidth=2;shape=mxgraph.networks.comm_link_edge;html=1;labelBackgroundColor=none;endArrow=none;fontFamily=Verdana;fontSize=22;fontColor=#000000;" parent="1" edge="1">
          <mxGeometry width="100" height="100" relative="1" as="geometry">
            <mxPoint x="742.1212121212122" y="670" as="sourcePoint" />
            <mxPoint x="540" y="380" as="targetPoint" />
          </mxGeometry>
        </mxCell>
        <mxCell id="69ecfefc5c41e42c-16" value="" style="html=1;fillColor=#CCCCCC;strokeColor=#6881B3;gradientColor=none;gradientDirection=north;strokeWidth=2;shape=mxgraph.networks.comm_link_edge;html=1;labelBackgroundColor=none;endArrow=none;fontFamily=Verdana;fontSize=22;fontColor=#000000;" parent="1" edge="1">
          <mxGeometry width="100" height="100" relative="1" as="geometry">
            <mxPoint x="800" y="559.655172413793" as="sourcePoint" />
            <mxPoint x="550" y="370" as="targetPoint" />
          </mxGeometry>
        </mxCell>
        <mxCell id="69ecfefc5c41e42c-17" value="" style="html=1;fillColor=#CCCCCC;strokeColor=#6881B3;gradientColor=none;gradientDirection=north;strokeWidth=2;shape=mxgraph.networks.comm_link_edge;html=1;labelBackgroundColor=none;endArrow=none;fontFamily=Verdana;fontSize=22;fontColor=#000000;entryX=1;entryY=1;entryDx=0;entryDy=0;" parent="1" target="69ecfefc5c41e42c-3" edge="1">
          <mxGeometry width="100" height="100" relative="1" as="geometry">
            <mxPoint x="810" y="430.66666666666663" as="sourcePoint" />
            <mxPoint x="550" y="497.3529411764705" as="targetPoint" />
          </mxGeometry>
        </mxCell>
        <mxCell id="lKiS0IlE48zkIgA0FAux-1" value="" style="image;html=1;image=img/lib/clip_art/computers/Mainframe_128x128.png;direction=south;" vertex="1" parent="1">
          <mxGeometry x="470" y="140" width="80" height="80" as="geometry" />
        </mxCell>
        <mxCell id="lKiS0IlE48zkIgA0FAux-3" value="RCS-Lite服务器" style="text;strokeColor=none;fillColor=none;html=1;fontSize=24;fontStyle=1;verticalAlign=middle;align=center;" vertex="1" parent="1">
          <mxGeometry x="470" y="120" width="100" height="40" as="geometry" />
        </mxCell>
        <mxCell id="lKiS0IlE48zkIgA0FAux-4" value="" style="fontColor=#0066CC;verticalAlign=top;verticalLabelPosition=bottom;labelPosition=center;align=center;html=1;outlineConnect=0;fillColor=#CCCCCC;strokeColor=#6881B3;gradientColor=none;gradientDirection=north;strokeWidth=2;shape=mxgraph.networks.wireless_modem;" vertex="1" parent="1">
          <mxGeometry x="130" y="400" width="100" height="85" as="geometry" />
        </mxCell>
        <mxCell id="lKiS0IlE48zkIgA0FAux-5" value="1号控制盒" style="text;strokeColor=none;fillColor=none;html=1;fontSize=24;fontStyle=1;verticalAlign=middle;align=center;" vertex="1" parent="1">
          <mxGeometry x="130" y="485" width="100" height="40" as="geometry" />
        </mxCell>
        <mxCell id="lKiS0IlE48zkIgA0FAux-8" value="" style="fontColor=#0066CC;verticalAlign=top;verticalLabelPosition=bottom;labelPosition=center;align=center;html=1;outlineConnect=0;fillColor=#CCCCCC;strokeColor=#6881B3;gradientColor=none;gradientDirection=north;strokeWidth=2;shape=mxgraph.networks.wireless_modem;" vertex="1" parent="1">
          <mxGeometry x="140" y="550" width="100" height="85" as="geometry" />
        </mxCell>
        <mxCell id="lKiS0IlE48zkIgA0FAux-9" value="2号控制盒" style="text;strokeColor=none;fillColor=none;html=1;fontSize=24;fontStyle=1;verticalAlign=middle;align=center;" vertex="1" parent="1">
          <mxGeometry x="140" y="635" width="100" height="40" as="geometry" />
        </mxCell>
        <mxCell id="lKiS0IlE48zkIgA0FAux-10" value="" style="html=1;fillColor=#CCCCCC;strokeColor=#6881B3;gradientColor=none;gradientDirection=north;strokeWidth=2;shape=mxgraph.networks.comm_link_edge;html=1;labelBackgroundColor=none;endArrow=none;fontFamily=Verdana;fontSize=22;fontColor=#000000;entryX=0.4;entryY=1.022;entryDx=0;entryDy=0;entryPerimeter=0;" edge="1" parent="1" target="69ecfefc5c41e42c-3">
          <mxGeometry width="100" height="100" relative="1" as="geometry">
            <mxPoint x="630" y="700" as="sourcePoint" />
            <mxPoint x="476" y="390" as="targetPoint" />
            <Array as="points">
              <mxPoint x="550" y="530" />
            </Array>
          </mxGeometry>
        </mxCell>
        <mxCell id="lKiS0IlE48zkIgA0FAux-11" value="" style="fontColor=#0066CC;verticalAlign=top;verticalLabelPosition=bottom;labelPosition=center;align=center;html=1;outlineConnect=0;fillColor=#CCCCCC;strokeColor=#6881B3;gradientColor=none;gradientDirection=north;strokeWidth=2;shape=mxgraph.networks.wireless_modem;" vertex="1" parent="1">
          <mxGeometry x="290" y="635" width="100" height="85" as="geometry" />
        </mxCell>
        <mxCell id="lKiS0IlE48zkIgA0FAux-12" value="3号控制盒" style="text;strokeColor=none;fillColor=none;html=1;fontSize=24;fontStyle=1;verticalAlign=middle;align=center;" vertex="1" parent="1">
          <mxGeometry x="290" y="720" width="100" height="40" as="geometry" />
        </mxCell>
        <mxCell id="lKiS0IlE48zkIgA0FAux-13" value="" style="fontColor=#0066CC;verticalAlign=top;verticalLabelPosition=bottom;labelPosition=center;align=center;html=1;outlineConnect=0;fillColor=#CCCCCC;strokeColor=#6881B3;gradientColor=none;gradientDirection=north;strokeWidth=2;shape=mxgraph.networks.wireless_modem;" vertex="1" parent="1">
          <mxGeometry x="440" y="620" width="100" height="85" as="geometry" />
        </mxCell>
        <mxCell id="lKiS0IlE48zkIgA0FAux-14" value="4号控制盒" style="text;strokeColor=none;fillColor=none;html=1;fontSize=24;fontStyle=1;verticalAlign=middle;align=center;" vertex="1" parent="1">
          <mxGeometry x="440" y="705" width="100" height="40" as="geometry" />
        </mxCell>
        <mxCell id="lKiS0IlE48zkIgA0FAux-15" value="" style="fontColor=#0066CC;verticalAlign=top;verticalLabelPosition=bottom;labelPosition=center;align=center;html=1;outlineConnect=0;fillColor=#CCCCCC;strokeColor=#6881B3;gradientColor=none;gradientDirection=north;strokeWidth=2;shape=mxgraph.networks.wireless_modem;" vertex="1" parent="1">
          <mxGeometry x="570" y="630" width="100" height="85" as="geometry" />
        </mxCell>
        <mxCell id="lKiS0IlE48zkIgA0FAux-16" value="5号控制盒" style="text;strokeColor=none;fillColor=none;html=1;fontSize=24;fontStyle=1;verticalAlign=middle;align=center;" vertex="1" parent="1">
          <mxGeometry x="570" y="715" width="100" height="40" as="geometry" />
        </mxCell>
        <mxCell id="lKiS0IlE48zkIgA0FAux-17" value="" style="fontColor=#0066CC;verticalAlign=top;verticalLabelPosition=bottom;labelPosition=center;align=center;html=1;outlineConnect=0;fillColor=#CCCCCC;strokeColor=#6881B3;gradientColor=none;gradientDirection=north;strokeWidth=2;shape=mxgraph.networks.wireless_modem;" vertex="1" parent="1">
          <mxGeometry x="700" y="610" width="100" height="85" as="geometry" />
        </mxCell>
        <mxCell id="lKiS0IlE48zkIgA0FAux-18" value="6号控制盒" style="text;strokeColor=none;fillColor=none;html=1;fontSize=24;fontStyle=1;verticalAlign=middle;align=center;" vertex="1" parent="1">
          <mxGeometry x="700" y="695" width="100" height="40" as="geometry" />
        </mxCell>
        <mxCell id="lKiS0IlE48zkIgA0FAux-19" value="" style="fontColor=#0066CC;verticalAlign=top;verticalLabelPosition=bottom;labelPosition=center;align=center;html=1;outlineConnect=0;fillColor=#CCCCCC;strokeColor=#6881B3;gradientColor=none;gradientDirection=north;strokeWidth=2;shape=mxgraph.networks.wireless_modem;" vertex="1" parent="1">
          <mxGeometry x="790" y="480" width="100" height="85" as="geometry" />
        </mxCell>
        <mxCell id="lKiS0IlE48zkIgA0FAux-20" value="7号控制盒" style="text;strokeColor=none;fillColor=none;html=1;fontSize=24;fontStyle=1;verticalAlign=middle;align=center;" vertex="1" parent="1">
          <mxGeometry x="790" y="565" width="100" height="40" as="geometry" />
        </mxCell>
        <mxCell id="lKiS0IlE48zkIgA0FAux-21" value="" style="fontColor=#0066CC;verticalAlign=top;verticalLabelPosition=bottom;labelPosition=center;align=center;html=1;outlineConnect=0;fillColor=#CCCCCC;strokeColor=#6881B3;gradientColor=none;gradientDirection=north;strokeWidth=2;shape=mxgraph.networks.wireless_modem;" vertex="1" parent="1">
          <mxGeometry x="810" y="350" width="100" height="85" as="geometry" />
        </mxCell>
        <mxCell id="lKiS0IlE48zkIgA0FAux-22" value="8号控制盒" style="text;strokeColor=none;fillColor=none;html=1;fontSize=24;fontStyle=1;verticalAlign=middle;align=center;" vertex="1" parent="1">
          <mxGeometry x="810" y="435" width="100" height="40" as="geometry" />
        </mxCell>
      </root>
    </mxGraphModel>
  </diagram>
</mxfile>
